HIERARCHY
ROOT Torso
{
	OFFSET 0.000000 0.000000 0.000000
	CHANNELS 6 Xposition Yposition Zposition Zrotation Yrotation Xrotation
	JOINT LeftHip
	{
		OFFSET 0.000000 0.000000 0.000000
		CHANNELS 6 Xposition Yposition Zposition Zrotation Yrotation Xrotation
		JOINT LeftThigh
		{
			OFFSET 0.055000 0.010000 -0.025000
			CHANNELS 3 Zrotation Yrotation Xrotation
			JOINT LeftShank
			{
				OFFSET 0.000000 -0.015000 -0.110000
				CHANNELS 6 Xposition Yposition Zposition Zrotation Yrotation Xrotation
				JOINT LeftFoot
				{
					OFFSET 0.000000 0.005000 -0.110000
					CHANNELS 6 Xposition Yposition Zposition Zrotation Yrotation Xrotation
					JOINT LeftFootBase
					{
						OFFSET 0.000000 -0.030000 -0.035000
						CHANNELS 6 Xposition Yposition Zposition Zrotation Yrotation Xrotation
						End Site
						{
							OFFSET 0.000000 -0.090000 0.000000
						}
					}
				}
			}
		}
	}
	JOINT RightHip
	{
		OFFSET 0.000000 0.000000 0.000000
		CHANNELS 6 Xposition Yposition Zposition Zrotation Yrotation Xrotation
		JOINT RightThigh
		{
			OFFSET -0.055000 0.010000 -0.025000
			CHANNELS 3 Zrotation Yrotation Xrotation
			JOINT RightShank
			{
				OFFSET 0.000000 -0.015000 -0.110000
				CHANNELS 6 Xposition Yposition Zposition Zrotation Yrotation Xrotation
				JOINT RightFoot
				{
					OFFSET 0.000000 0.005000 -0.110000
					CHANNELS 6 Xposition Yposition Zposition Zrotation Yrotation Xrotation
					JOINT RightFootBase
					{
						OFFSET 0.000000 -0.030000 -0.035000
						CHANNELS 6 Xposition Yposition Zposition Zrotation Yrotation Xrotation
						End Site
						{
							OFFSET 0.000000 -0.090000 0.000000
						}
					}
				}
			}
		}
	}
	JOINT Back
	{
		OFFSET 0.000000 0.000000 0.000000
		CHANNELS 6 Xposition Yposition Zposition Zrotation Yrotation Xrotation
		JOINT Neck
		{
			OFFSET 0.000000 0.000000 0.140000
			CHANNELS 3 Zrotation Yrotation Xrotation
			JOINT Head
			{
				OFFSET 0.000000 0.000000 0.105000
				CHANNELS 6 Xposition Yposition Zposition Zrotation Yrotation Xrotation
				End Site
				{
					OFFSET 0.000000 0.000000 0.065000
				}
			}
		}
		JOINT LeftShoulder
		{
			OFFSET 0.000000 0.000000 0.140000
			CHANNELS 3 Zrotation Yrotation Xrotation
			JOINT LeftUpperarm
			{
				OFFSET 0.098000 0.000000 0.025000
				CHANNELS 6 Xposition Yposition Zposition Zrotation Yrotation Xrotation
				JOINT LeftLowerarm
				{
					OFFSET 0.000000 -0.090000 0.009000
					CHANNELS 6 Xposition Yposition Zposition Zrotation Yrotation Xrotation
					End Site
					{
						OFFSET 0.000000 -0.100000 0.000000
					}
				}
			}
		}
		JOINT RightShoulder
		{
			OFFSET 0.000000 0.000000 0.140000
			CHANNELS 3 Zrotation Yrotation Xrotation
			JOINT RightUpperarm
			{
				OFFSET -0.098000 0.000000 0.025000
				CHANNELS 6 Xposition Yposition Zposition Zrotation Yrotation Xrotation
				JOINT RightLowerarm
				{
					OFFSET 0.000000 -0.090000 0.009000
					CHANNELS 6 Xposition Yposition Zposition Zrotation Yrotation Xrotation
					End Site
					{
						OFFSET 0.000000 -0.100000 0.000000
					}
				}
			}
		}
	}
}
MOTION
Frames: 11
Frame Time: 0.033333
0.000000 0.000000 0.000000 -3.795459 -2.059178 -5.530306 0.000001 0.000000 -0.000002 -41.792982 27.596719 16.742558 -139.508663 5.834745 49.375403 -0.000000 -0.015000 -0.109999 -0.000043 0.000032 -33.610623 -0.000000 0.005000 -0.110000 -177.851692 25.115114 -40.072337 -0.000000 -0.030000 -0.035000 -8.694288 0.396655 33.065031 -0.000000 -0.000000 0.000000 44.797063 -30.352295 16.833239 130.021093 -7.963624 46.455617 0.000000 -0.015000 -0.110000 -0.000155 0.000012 -76.503897 0.000000 0.005000 -0.110000 157.978369 -24.197806 -18.146817 0.000000 -0.030001 -0.034999 7.903687 2.393348 40.645219 0.000000 -0.000000 -0.000002 1.202729 1.196867 5.763814 0.758364 -0.474893 -6.066312 -0.000000 0.000001 0.105002 -1.840305 0.581859 25.272856 5.507682 -7.972479 -4.510519 0.097998 -0.000000 0.025000 -25.835809 190.253321 -95.323869 0.000000 -0.089998 0.009001 -17.864734 3.203898 25.889511 -3.453233 8.199406 -5.946258 -0.097998 0.000000 0.025000 21.623653 -189.077941 -91.537772 0.000000 -0.090000 0.009000 14.541703 -1.805163 19.790080 
0.000000 0.000000 0.000000 -3.683359 -2.214021 -5.652186 -0.000001 0.000001 0.000000 -41.792992 27.596720 16.742551 -139.757391 5.655885 48.624752 -0.000000 -0.015000 -0.109999 -0.000060 0.000061 -33.409047 0.000000 0.005000 -0.110000 -177.895801 25.147694 -40.497821 -0.000000 -0.030000 -0.035000 -8.804241 0.467782 32.704366 0.000002 0.000000 0.000001 44.797070 -30.352288 16.833240 129.518323 -7.907730 48.136574 -0.000000 -0.015000 -0.109999 -0.000100 -0.000058 -78.550194 -0.000000 0.005001 -0.109999 157.716445 -24.517949 -19.443897 0.000000 -0.030000 -0.035001 7.606164 2.653354 41.717170 0.000000 0.000000 0.000002 1.093291 1.477310 6.047794 0.799366 -1.095201 -6.571004 -0.000000 0.000001 0.105002 -1.060396 0.888226 25.127375 5.135740 -8.300030 -4.143031 0.098000 0.000000 0.025000 -26.061055 190.060573 -94.779263 -0.000000 -0.090000 0.009000 -17.998921 3.269227 26.140124 -3.715053 7.932129 -5.532046 -0.098002 -0.000000 0.025000 21.879331 -188.762373 -90.920575 0.000000 -0.089998 0.009000 14.362795 -1.741429 19.466720 
0.000000 0.000000 0.000000 -3.957599 -2.667034 -5.848531 0.000001 0.000000 -0.000000 -41.792988 27.596720 16.742544 -140.187529 5.130845 47.718963 -0.000000 -0.015000 -0.110000 -0.000018 0.000015 -33.334335 -0.000000 0.005000 -0.110000 -177.634956 25.204288 -41.071867 -0.000000 -0.030000 -0.035000 -8.906965 0.533346 32.368676 0.000000 0.000000 -0.000000 44.797070 -30.352288 16.833239 129.019910 -8.417414 49.609327 -0.000000 -0.015000 -0.109999 -0.000116 0.000001 -80.314214 0.000000 0.005000 -0.110000 158.265715 -25.036554 -21.868350 -0.000000 -0.030000 -0.035000 8.045428 2.272899 40.140066 0.000000 -0.000000 -0.000002 1.227326 1.850773 5.978434 0.835042 -1.063584 -5.457662 0.000000 0.000000 0.104998 -1.361966 0.933449 24.695370 5.343497 -8.226381 -4.478943 0.097998 0.000001 0.025000 -26.493897 190.190647 -95.434504 0.000000 -0.090002 0.008999 -18.217955 3.377569 26.550205 -3.602984 7.953478 -5.875158 -0.098000 0.000000 0.025000 22.022663 -189.088132 -91.681677 0.000000 -0.090000 0.009001 14.425433 -1.763614 19.579955 
0.000000 0.000000 0.000000 -3.333533 -2.951706 -5.961532 0.000000 -0.000000 -0.000002 -41.792999 27.596727 16.742552 -140.569460 4.832192 47.097248 -0.000000 -0.015000 -0.110001 -0.000075 0.000014 -33.213379 -0.000000 0.005000 -0.110000 -178.125528 25.209441 -41.440448 0.000000 -0.030000 -0.035000 -8.770862 0.446316 32.813793 0.000000 -0.000000 -0.000001 44.797076 -30.352309 16.833240 127.994412 -8.318831 51.316222 -0.000000 -0.015000 -0.109999 -0.000089 -0.000004 -81.878231 0.000000 0.005000 -0.110000 158.152293 -25.434615 -23.749138 -0.000001 -0.030000 -0.035001 8.040025 2.277446 40.159108 0.000000 -0.000000 -0.000002 0.976434 2.300727 6.485488 0.138149 -1.129729 -6.435911 -0.000000 0.000000 0.105000 -1.340024 0.853044 25.577786 4.638762 -8.594985 -4.237218 0.098000 0.000000 0.025000 -26.295257 189.925390 -94.733822 0.000000 -0.090000 0.009001 -18.269979 3.403600 26.647648 -4.232237 7.626368 -5.579106 -0.097998 0.000000 0.025000 22.247197 -188.760829 -91.138165 -0.000000 -0.090002 0.009000 14.396172 -1.753231 19.527169 
0.000000 0.000000 0.000000 -3.164574 -3.144208 -6.124129 -0.000001 0.000000 0.000002 -41.792988 27.596720 16.742537 -140.831288 4.586887 46.311544 -0.000000 -0.015000 -0.110001 -0.000025 -0.000001 -33.014307 0.000000 0.005000 -0.110000 -178.222681 25.233813 -41.839259 -0.000000 -0.030000 -0.035000 -8.667153 0.379052 33.153967 0.000001 -0.000001 0.000002 44.797063 -30.352299 16.833244 127.383533 -8.298861 52.735255 0.000000 -0.015000 -0.110000 -0.000167 -0.000029 -83.213451 0.000000 0.005000 -0.110000 159.018005 -25.769884 -25.666408 -0.000000 -0.030000 -0.035000 8.871227 1.611647 37.261984 0.000000 -0.000001 0.000004 0.931088 2.604489 6.675194 0.076995 -1.655610 -5.369884 0.000000 0.000001 0.105002 -1.105190 1.192652 24.341432 4.549178 -8.680606 -5.149635 0.098000 0.000000 0.025000 -26.341897 190.153614 -95.666109 -0.000000 -0.089998 0.009001 -18.371298 3.454541 26.837830 -4.574606 7.400717 -6.464279 -0.097996 0.000000 0.025000 22.230630 -189.151297 -92.235161 -0.000000 -0.089998 0.009001 14.468236 -1.778851 19.657276 
0.000000 0.000000 0.000000 -3.276296 -3.492497 -6.213575 -0.000001 0.000001 0.000002 -41.793002 27.596724 16.742549 -140.991196 4.059668 45.659377 0.000000 -0.015000 -0.109999 -0.000075 0.000034 -32.972670 0.000000 0.005000 -0.110000 -178.248253 25.264011 -42.293115 -0.000000 -0.030000 -0.035000 -8.665322 0.377819 33.160183 0.000001 0.000000 0.000002 44.797070 -30.352302 16.833237 126.868687 -8.578905 54.160432 0.000000 -0.015000 -0.109999 -0.000154 0.000014 -84.339688 0.000000 0.005000 -0.110000 159.371044 -26.007699 -27.048514 0.000000 -0.030000 -0.035000 9.109501 1.433052 36.450343 0.000000 -0.000001 0.000004 0.929292 2.885975 6.591361 0.269320 -2.256096 -5.261437 0.000000 0.000000 0.104998 -0.464343 1.990660 24.047418 4.395365 -8.758145 -4.578768 0.097998 0.000000 0.025000 -26.467068 189.883179 -95.202182 -0.000000 -0.090002 0.008999 -18.394649 3.466277 26.881608 -4.567845 7.412809 -5.890045 -0.097998 0.000000 0.025000 22.170494 -189.071821 -91.947979 0.000000 -0.089998 0.009000 14.501168 -1.790660 19.716716 
0.000000 0.000000 0.000000 -3.179487 -3.876342 -6.280717 0.000000 -0.000000 0.000000 -41.792985 27.596719 16.742554 -141.175106 3.522138 45.143060 -0.000000 -0.015000 -0.109999 -0.000035 0.000013 -33.060206 -0.000000 0.005000 -0.110000 -178.579121 25.286603 -42.865506 -0.000000 -0.030000 -0.035000 -8.644450 0.364184 33.228887 0.000000 0.000000 -0.000000 44.797073 -30.352288 16.833257 126.257071 -8.836488 55.660823 -0.000000 -0.015000 -0.110001 -0.000113 -0.000028 -85.240556 -0.000000 0.005001 -0.110000 159.849922 -26.151789 -27.993544 -0.000000 -0.030000 -0.035000 8.878153 1.606337 37.238287 -0.000000 0.000000 -0.000004 0.852169 3.197178 6.449065 -0.074152 -2.935252 -5.465584 -0.000000 0.000001 0.105002 -0.463193 3.547670 25.246044 4.124678 -8.709675 -4.241492 0.098000 0.000000 0.025000 -26.620478 189.637088 -95.046303 0.000000 -0.090000 0.008999 -18.449340 3.494080 26.984459 -4.745164 7.512364 -5.565465 -0.097998 0.000000 0.025000 22.303716 -189.186159 -91.916991 0.000000 -0.090000 0.009000 14.587677 -1.821763 19.873235 
0.000000 0.000000 0.000000 -3.086472 -4.010992 -6.304176 -0.000001 0.000000 0.000000 -41.792985 27.596719 16.742544 -141.300372 3.324063 44.706337 0.000000 -0.015000 -0.110000 -0.000063 -0.000008 -33.182852 0.000000 0.005000 -0.110000 -178.777825 25.307739 -43.351245 0.000000 -0.030000 -0.035000 -8.723104 0.415383 32.970460 0.000002 -0.000000 0.000001 44.797070 -30.352295 16.833235 125.913349 -8.806438 57.198244 0.000000 -0.015000 -0.110000 -0.000097 0.000052 -85.962937 -0.000000 0.004999 -0.110000 159.176097 -25.954707 -26.705000 0.000000 -0.030000 -0.035000 6.710616 3.498574 45.050319 -0.000000 0.000000 -0.000002 0.767129 3.426269 6.602809 -0.408060 -3.064071 -5.897318 -0.000000 0.000001 0.105004 -0.513761 3.755201 26.113570 3.803758 -8.924228 -3.751428 0.098000 -0.000000 0.025000 -26.788195 189.218998 -94.296219 -0.000000 -0.090002 0.009000 -18.443994 3.491337 26.974382 -4.924156 7.374429 -5.049730 -0.098000 -0.000000 0.025000 22.430821 -188.983042 -91.369401 -0.000000 -0.089996 0.009001 14.619147 -1.833182 19.930260 
0.000000 0.000000 0.000000 -3.137074 -4.183544 -6.372895 0.000001 -0.000000 -0.000000 -41.792992 27.596713 16.742549 -141.427441 3.050281 44.231813 -0.000000 -0.015000 -0.109999 -0.000083 0.000003 -33.385200 0.000000 0.005000 -0.110000 -178.818929 25.334162 -43.831947 -0.000000 -0.030000 -0.035000 -8.712397 0.408500 33.005520 -0.000000 -0.000000 0.000000 44.797073 -30.352295 16.833242 125.681887 -8.892012 58.550069 -0.000000 -0.015000 -0.109999 -0.000182 -0.000018 -86.483391 -0.000000 0.005000 -0.110000 160.438507 -26.255553 -28.764051 0.000000 -0.030000 -0.035000 7.259006 2.969521 42.989125 -0.000000 0.000000 -0.000000 0.756198 3.650819 6.558666 -0.332207 -3.171420 -5.385773 -0.000000 0.000000 0.104998 -0.228723 3.446218 25.556657 3.693251 -9.085287 -3.661958 0.097998 0.000000 0.025000 -27.056229 189.076876 -94.215807 -0.000000 -0.089998 0.009002 -18.545898 3.543369 27.165932 -5.006338 7.228617 -4.937065 -0.098000 0.000000 0.025000 22.255154 -189.012699 -91.549786 0.000000 -0.090000 0.009000 14.682159 -1.856019 20.044201 
0.000000 0.000000 0.000000 -2.934783 -4.379671 -6.487666 -0.000000 0.000000 -0.000000 -41.792988 27.596724 16.742546 -141.570164 2.750800 43.749243 -0.000000 -0.015000 -0.109999 -0.000105 0.000053 -33.674537 0.000000 0.005000 -0.110000 -179.076468 25.345719 -44.247724 -0.000000 -0.030000 -0.035000 -8.229649 0.085253 34.603791 0.000000 -0.000000 -0.000001 44.797056 -30.352302 16.833240 125.226273 -8.909037 59.771327 0.000000 -0.015000 -0.110000 -0.000106 -0.000012 -86.778018 0.000000 0.005000 -0.110000 161.375090 -26.449440 -30.227511 0.000000 -0.030000 -0.035000 7.276799 2.952968 42.923313 0.000000 -0.000000 0.000002 0.654573 3.877486 6.551625 -0.443952 -3.250902 -4.952352 -0.000000 0.000000 0.105002 0.055580 3.126322 24.872265 3.377794 -9.248185 -3.395171 0.097998 -0.000000 0.025000 -27.148663 189.006361 -94.110684 0.000001 -0.090000 0.009000 -18.833162 3.692203 27.707390 -5.243465 7.107234 -4.649923 -0.098000 0.000000 0.025000 21.980848 -188.991771 -91.564867 -0.000000 -0.089996 0.009000 14.807258 -1.901995 20.270733 
0.000000 0.000000 0.000000 -2.639755 -4.418025 -6.514990 0.000000 0.000000 -0.000001 -41.792985 27.596720 16.742556 -141.716822 2.684374 43.397594 -0.000000 -0.015000 -0.110000 -0.000061 -0.000001 -34.003127 -0.000000 0.005000 -0.110000 -179.523285 25.359826 -44.907114 -0.000000 -0.030000 -0.035000 -8.471800 0.249865 33.798720 0.000001 0.000000 0.000001 44.797066 -30.352302 16.833240 124.884558 -8.730382 61.095981 -0.000000 -0.014999 -0.109998 -0.000146 0.000022 -86.883742 -0.000000 0.005000 -0.110000 162.475447 -26.672577 -32.049300 0.000000 -0.030000 -0.035000 7.006709 3.208187 43.929195 0.000000 -0.000001 0.000002 0.475034 3.944894 6.850661 -0.924806 -3.415430 -5.192104 0.000000 0.000001 0.105002 -0.029690 3.660111 25.466430 3.038452 -9.253684 -3.871944 0.098000 -0.000001 0.025001 -27.138304 189.111436 -94.562658 -0.000000 -0.089996 0.009000 -19.214415 3.895060 28.428873 -5.717034 7.030699 -5.117821 -0.098000 -0.000000 0.025000 22.030806 -189.241401 -91.901575 0.000000 -0.089998 0.009000 15.116354 -2.017806 20.831642 
